<?xml version="1.0" encoding="UTF-8" standalone="no"?>
<!DOCTYPE svg PUBLIC "-//W3C//DTD SVG 1.0//EN" "http://www.w3.org/TR/2001/PR-SVG-20010719/DTD/svg10.dtd">
<svg width="24cm" height="10cm" viewBox="305 -214 476 195" xmlns="http://www.w3.org/2000/svg" xmlns:xlink="http://www.w3.org/1999/xlink">
  <g>
    <rect style="fill: #ffffff" x="306.45" y="-180" width="107.1" height="40"/>
    <rect style="fill: none; fill-opacity:0; stroke-width: 2; stroke: #000000" x="306.45" y="-180" width="107.1" height="40"/>
    <text font-size="12.7998" style="fill: #000000;text-anchor:middle;font-family:sans-serif;font-style:normal;font-weight:normal" x="360" y="-155.2">
      <tspan x="360" y="-155.2">null</tspan>
    </text>
  </g>
  <g>
    <rect style="fill: #ffffff" x="460" y="-180" width="80" height="40"/>
    <rect style="fill: none; fill-opacity:0; stroke-width: 2; stroke: #000000" x="460" y="-180" width="80" height="40"/>
    <text font-size="12.7998" style="fill: #000000;text-anchor:middle;font-family:sans-serif;font-style:normal;font-weight:normal" x="500" y="-155.2">
      <tspan x="500" y="-155.2"></tspan>
    </text>
  </g>
  <g>
    <rect style="fill: #ffffff" x="580" y="-180" width="80" height="40"/>
    <rect style="fill: none; fill-opacity:0; stroke-width: 2; stroke: #000000" x="580" y="-180" width="80" height="40"/>
    <text font-size="12.7998" style="fill: #000000;text-anchor:middle;font-family:sans-serif;font-style:normal;font-weight:normal" x="620" y="-155.2">
      <tspan x="620" y="-155.2"></tspan>
    </text>
  </g>
  <g>
    <line style="fill: none; fill-opacity:0; stroke-width: 2; stroke: #000000" x1="540" y1="-160" x2="570.264" y2="-160"/>
    <polygon style="fill: #000000" points="577.764,-160 567.764,-155 570.264,-160 567.764,-165 "/>
    <polygon style="fill: none; fill-opacity:0; stroke-width: 2; stroke: #000000" points="577.764,-160 567.764,-155 570.264,-160 567.764,-165 "/>
  </g>
  <text font-size="12.7998" style="fill: #000000;text-anchor:start;font-family:sans-serif;font-style:normal;font-weight:normal" x="340" y="-200">
    <tspan x="340" y="-200">previous</tspan>
  </text>
  <text font-size="12.7998" style="fill: #000000;text-anchor:start;font-family:sans-serif;font-style:normal;font-weight:normal" x="480" y="-200">
    <tspan x="480" y="-200">current</tspan>
  </text>
  <text font-size="12.7998" style="fill: #000000;text-anchor:start;font-family:sans-serif;font-style:normal;font-weight:normal" x="600" y="-200">
    <tspan x="600" y="-200">next</tspan>
  </text>
  <g>
    <rect style="fill: #ffffff" x="306.45" y="-60" width="107.1" height="40"/>
    <rect style="fill: none; fill-opacity:0; stroke-width: 2; stroke: #000000" x="306.45" y="-60" width="107.1" height="40"/>
    <text font-size="12.7998" style="fill: #000000;text-anchor:middle;font-family:sans-serif;font-style:normal;font-weight:normal" x="360" y="-35.2">
      <tspan x="360" y="-35.2">null</tspan>
    </text>
  </g>
  <g>
    <rect style="fill: #ffffff" x="460" y="-60" width="80" height="40"/>
    <rect style="fill: none; fill-opacity:0; stroke-width: 2; stroke: #000000" x="460" y="-60" width="80" height="40"/>
    <text font-size="12.7998" style="fill: #000000;text-anchor:middle;font-family:sans-serif;font-style:normal;font-weight:normal" x="500" y="-35.2">
      <tspan x="500" y="-35.2"></tspan>
    </text>
  </g>
  <g>
    <rect style="fill: #ffffff" x="580" y="-60" width="80" height="40"/>
    <rect style="fill: none; fill-opacity:0; stroke-width: 2; stroke: #000000" x="580" y="-60" width="80" height="40"/>
    <text font-size="12.7998" style="fill: #000000;text-anchor:middle;font-family:sans-serif;font-style:normal;font-weight:normal" x="620" y="-35.2">
      <tspan x="620" y="-35.2"></tspan>
    </text>
  </g>
  <text font-size="12.7998" style="fill: #000000;text-anchor:start;font-family:sans-serif;font-style:normal;font-weight:normal" x="440" y="-80">
    <tspan x="440" y="-80">previous = current</tspan>
  </text>
  <text font-size="12.7998" style="fill: #000000;text-anchor:start;font-family:sans-serif;font-style:normal;font-weight:normal" x="580" y="-80">
    <tspan x="580" y="-80">current = next</tspan>
  </text>
  <g>
    <line style="fill: none; fill-opacity:0; stroke-width: 2; stroke: #000000" x1="460" y1="-40" x2="423.286" y2="-40"/>
    <polygon style="fill: #000000" points="415.786,-40 425.786,-45 423.286,-40 425.786,-35 "/>
    <polygon style="fill: none; fill-opacity:0; stroke-width: 2; stroke: #000000" points="415.786,-40 425.786,-45 423.286,-40 425.786,-35 "/>
  </g>
  <g>
    <rect style="fill: #ffffff" x="700" y="-180" width="80" height="40"/>
    <rect style="fill: none; fill-opacity:0; stroke-width: 2; stroke: #000000" x="700" y="-180" width="80" height="40"/>
    <text font-size="12.7998" style="fill: #000000;text-anchor:middle;font-family:sans-serif;font-style:normal;font-weight:normal" x="740" y="-155.2">
      <tspan x="740" y="-155.2"></tspan>
    </text>
  </g>
  <g>
    <line style="fill: none; fill-opacity:0; stroke-width: 2; stroke: #000000" x1="660" y1="-160" x2="690.264" y2="-160"/>
    <polygon style="fill: #000000" points="697.764,-160 687.764,-155 690.264,-160 687.764,-165 "/>
    <polygon style="fill: none; fill-opacity:0; stroke-width: 2; stroke: #000000" points="697.764,-160 687.764,-155 690.264,-160 687.764,-165 "/>
  </g>
  <g>
    <rect style="fill: #ffffff" x="700" y="-60" width="80" height="40"/>
    <rect style="fill: none; fill-opacity:0; stroke-width: 2; stroke: #000000" x="700" y="-60" width="80" height="40"/>
    <text font-size="12.7998" style="fill: #000000;text-anchor:middle;font-family:sans-serif;font-style:normal;font-weight:normal" x="740" y="-35.2">
      <tspan x="740" y="-35.2"></tspan>
    </text>
  </g>
  <g>
    <line style="fill: none; fill-opacity:0; stroke-width: 2; stroke: #000000" x1="660" y1="-40" x2="690.264" y2="-40"/>
    <polygon style="fill: #000000" points="697.764,-40 687.764,-35 690.264,-40 687.764,-45 "/>
    <polygon style="fill: none; fill-opacity:0; stroke-width: 2; stroke: #000000" points="697.764,-40 687.764,-35 690.264,-40 687.764,-45 "/>
  </g>
</svg>
