<?xml version="1.0" encoding="UTF-8" standalone="no"?>
<!DOCTYPE svg PUBLIC "-//W3C//DTD SVG 1.1//EN"
 "http://www.w3.org/Graphics/SVG/1.1/DTD/svg11.dtd">
<!-- Generated by graphviz version 2.47.1 (20210417.1919)
 -->
<!-- Pages: 1 -->
<svg width="188pt" height="98pt"
 viewBox="0.00 0.00 188.00 98.00" xmlns="http://www.w3.org/2000/svg" xmlns:xlink="http://www.w3.org/1999/xlink">
<g id="graph0" class="graph" transform="scale(1 1) rotate(0) translate(4 94)">
<polygon fill="white" stroke="transparent" points="-4,4 -4,-94 184,-94 184,4 -4,4"/>
<!-- A -->
<g id="node1" class="node">
<title>A</title>
<ellipse fill="none" stroke="black" cx="18" cy="-45" rx="18" ry="18"/>
<text text-anchor="middle" x="18" y="-41.3" font-family="Times,serif" font-size="14.00">A</text>
</g>
<!-- B -->
<g id="node2" class="node">
<title>B</title>
<ellipse fill="none" stroke="black" cx="90" cy="-72" rx="18" ry="18"/>
<text text-anchor="middle" x="90" y="-68.3" font-family="Times,serif" font-size="14.00">B</text>
</g>
<!-- A&#45;&gt;B -->
<g id="edge1" class="edge">
<title>A&#45;&gt;B</title>
<path fill="none" stroke="black" d="M35.24,-51.26C43.63,-54.5 54.07,-58.53 63.5,-62.17"/>
<polygon fill="black" stroke="black" points="62.26,-65.44 72.85,-65.77 64.78,-58.91 62.26,-65.44"/>
</g>
<!-- C -->
<g id="node3" class="node">
<title>C</title>
<ellipse fill="none" stroke="black" cx="90" cy="-18" rx="18" ry="18"/>
<text text-anchor="middle" x="90" y="-14.3" font-family="Times,serif" font-size="14.00">C</text>
</g>
<!-- A&#45;&gt;C -->
<g id="edge2" class="edge">
<title>A&#45;&gt;C</title>
<path fill="none" stroke="black" d="M35.24,-38.74C43.63,-35.5 54.07,-31.47 63.5,-27.83"/>
<polygon fill="black" stroke="black" points="64.78,-31.09 72.85,-24.23 62.26,-24.56 64.78,-31.09"/>
</g>
<!-- D -->
<g id="node4" class="node">
<title>D</title>
<ellipse fill="none" stroke="black" cx="162" cy="-18" rx="18" ry="18"/>
<text text-anchor="middle" x="162" y="-14.3" font-family="Times,serif" font-size="14.00">D</text>
</g>
<!-- B&#45;&gt;D -->
<g id="edge3" class="edge">
<title>B&#45;&gt;D</title>
<path fill="none" stroke="black" d="M104.83,-61.33C114.61,-53.79 127.92,-43.52 139.13,-34.87"/>
<polygon fill="black" stroke="black" points="141.42,-37.53 147.2,-28.65 137.14,-31.98 141.42,-37.53"/>
</g>
<!-- C&#45;&gt;D -->
<g id="edge4" class="edge">
<title>C&#45;&gt;D</title>
<path fill="none" stroke="black" d="M107.24,-12.2C115.36,-11.29 125.41,-11.03 134.61,-11.43"/>
<polygon fill="black" stroke="black" points="134.62,-14.95 144.85,-12.21 135.14,-7.97 134.62,-14.95"/>
</g>
<!-- D&#45;&gt;C -->
<g id="edge5" class="edge">
<title>D&#45;&gt;C</title>
<path fill="none" stroke="black" d="M144.85,-23.79C136.74,-24.71 126.7,-24.97 117.49,-24.57"/>
<polygon fill="black" stroke="black" points="117.47,-21.06 107.24,-23.8 116.95,-28.04 117.47,-21.06"/>
</g>
</g>
</svg>
